# xmcd
#
# Track frame offsets: 
#        150
#        12219
#        23955
#        35343
#        47903
#        59750
#        71076
#        82317
#        93071
#        104510
#        118036
#        129298
#        141532
#        151676
#        161236
#        173880
#        187865
#        198492
#        215667
#
# Disc length: 3048 seconds
#
# Revision: 1
# Processed by: cddbd v1.5.2PL0 Copyright (c) Steve Scherf et al.
# Submitted via: ExactAudioCopy v0.99pb5
#
DISCID=140be613
DTITLE=Various Artist - DIE SCHÖNSTEN COUNTRY and WESTERN HITS - VOL. 2
DYEAR=2001
DGENRE=Country
TTITLE0=FERLIN HUSKY -  I Could Sing All Night
TTITLE1=DAVE DUDLEY - Six Days On The Road
TTITLE2=BUDDY MEREDITH - New Girl In Town
TTITLE3=BOBBY BARE - The Year That Clayton Delaney Died
TTITLE4=BILLY GRAMMER - Papa And Mama
TTITLE5=BARBARA PERRY - I'll Hold You Closer Than Love
TTITLE6=FERLIN HUSKY - The Bridge I Have Never Crossed
TTITLE7=GEORGE KENT - In A Bad Mood Tonight
TTITLE8=DAVE DUDLEY - Sentimental Journey
TTITLE9=RICK JOHNSON - If You Are Going To Tulsa
TTITLE10=RICK KEY - The Great Barnyard Disaster
TTITLE11=FERLIN HUSKY - I Only Roll 'Em
TTITLE12=DAVE DUDLEY - Truck Driving Son-Of-A-Gun
TTITLE13=GEORGE KENT - Running With The Wind
TTITLE14=BOBBY LORD - Looking For A Cold Lonely Winter
TTITLE15=DAVE DUDLEY - Morning Sun
TTITLE16=GEORGE KENT - You Wouldn't Want Me Now
TTITLE17=BOBBY BARE - Sylvia's Mother
TTITLE18=TOM STEWART - Nothing But A Broken Heart
EXTD=
EXTT0=
EXTT1=
EXTT2=
EXTT3=
EXTT4=
EXTT5=
EXTT6=
EXTT7=
EXTT8=
EXTT9=
EXTT10=
EXTT11=
EXTT12=
EXTT13=
EXTT14=
EXTT15=
EXTT16=
EXTT17=
EXTT18=
PLAYORDER=
